<svg xmlns="http://www.w3.org/2000/svg" xmlns:xlink="http://www.w3.org/1999/xlink" width="144" height="159" version="1.1" viewBox="0 0 144 159"><title>Group 4 Copy 4</title><desc>Created with Sketch.</desc><g id="Logo" fill="none" fill-rule="evenodd" stroke="none" stroke-width="1"><g id="Group-4-Copy-4"><polygon id="Rectangle" fill="#D33257" points="0 0 144 0 130.881 144 72 158.974 14.009 144"/><polygon id="Rectangle" fill="#F05377" points="72 14 131.5 14 120.659 133 72 145.374"/><polygon id="Rectangle-Copy" fill="#F05377" points="13 14 72.5 14 61.659 133 13 145.374" opacity=".459" transform="translate(42.750000, 79.687087) scale(-1, 1) translate(-42.750000, -79.687087)"/><g id="Group-2" fill="#FFF" transform="translate(47.000000, 34.000000)"><polygon id="F-Copy" points="16.8 84 16.8 51.48 50.52 51.48 50.52 37.2 16.8 37.2 16.8 15 53.88 15 53.88 0 .6 0 .6 84" opacity=".898"/><polygon id="F-Copy" points="25.223 51.48 50.52 51.48 50.52 37.2 25.208 37.2 25.166 15 53.88 15 53.88 0 25.041 0"/></g></g></g></svg>